<svg width="245" height="47" viewBox="0 0 245 47" fill="none" xmlns="http://www.w3.org/2000/svg">
<path d="M34.272 46H24.736L15.712 30.448H8.992V46H0.16V1.2H18.08C22.2187 1.2 25.7387 2.65066 28.64 5.552C31.5413 8.45333 32.992 11.952 32.992 16.048C32.992 18.8213 32.2027 21.4027 30.624 23.792C29.0453 26.1387 26.9547 27.9093 24.352 29.104L34.272 46ZM18.08 9.456H8.992V22.704H18.08C19.744 22.704 21.1733 22.064 22.368 20.784C23.5627 19.4613 24.16 17.8827 24.16 16.048C24.16 14.2133 23.5627 12.656 22.368 11.376C21.1733 10.096 19.744 9.456 18.08 9.456ZM48.3045 27.504V37.552H67.1845V46H39.4725V1.2H66.8645V9.648H48.3045V19.184H65.2645V27.504H48.3045ZM95.426 46H84.482L69.442 1.2H79.042L89.986 35.632L100.866 1.2H110.53L95.426 46ZM114.848 46V1.2H123.68V46H114.848ZM140.805 1.2V37.552H157.893V46H131.973V1.2H140.805ZM162.91 46V1.2H171.742V46H162.91ZM194.644 46.896C190.249 46.896 186.537 45.9147 183.508 43.952C180.478 41.9893 178.324 39.28 177.044 35.824L184.595 31.408C186.345 35.9733 189.78 38.256 194.9 38.256C197.289 38.256 199.081 37.8293 200.276 36.976C201.47 36.1227 202.068 34.9707 202.068 33.52C202.068 31.9413 201.364 30.7253 199.956 29.872C198.548 28.976 196.03 28.016 192.404 26.992C188.478 25.7973 185.385 24.4107 183.124 22.832C180.308 20.7413 178.9 17.6693 178.9 13.616C178.9 9.52 180.329 6.29866 183.188 3.952C186.046 1.52 189.524 0.303997 193.62 0.303997C197.204 0.303997 200.382 1.17866 203.156 2.928C205.929 4.67733 208.084 7.152 209.62 10.352L202.196 14.64C200.404 10.8 197.545 8.88 193.62 8.88C191.828 8.88 190.398 9.30666 189.332 10.16C188.265 10.9707 187.732 12.0373 187.732 13.36C187.732 14.768 188.308 15.92 189.46 16.816C190.74 17.712 193.001 18.6507 196.244 19.632L199.316 20.656C199.87 20.8267 200.83 21.1893 202.196 21.744C203.476 22.2133 204.414 22.6613 205.012 23.088C207.102 24.368 208.51 25.6907 209.236 27.056C210.345 28.848 210.9 30.96 210.9 33.392C210.9 37.5307 209.385 40.816 206.356 43.248C203.326 45.68 199.422 46.896 194.644 46.896ZM225.18 27.504V37.552H244.06V46H216.348V1.2H243.74V9.648H225.18V19.184H242.14V27.504H225.18Z" fill="white"/>
</svg>
